<?xml version="1.0" standalone="no"?>
<!DOCTYPE svg PUBLIC "-//W3C//DTD SVG 20010904//EN"
 "http://www.w3.org/TR/2001/REC-SVG-20010904/DTD/svg10.dtd">
<svg version="1.0" xmlns="http://www.w3.org/2000/svg"
 width="300.000000pt" height="168.000000pt" viewBox="0 0 300.000000 168.000000"
 preserveAspectRatio="xMidYMid meet">

<g transform="translate(0.000000,168.000000) scale(0.100000,-0.100000)"
fill="#000000" stroke="none">
<path d="M1085 1319 c-4 -6 -5 -12 -2 -15 7 -7 37 7 37 17 0 13 -27 11 -35 -2z"/>
<path d="M1880 1321 c0 -10 30 -24 37 -17 3 3 2 9 -2 15 -8 13 -35 15 -35 2z"/>
<path d="M1457 1264 c-14 -14 -7 -34 13 -34 15 0 20 -7 20 -28 0 -27 -3 -29
-67 -41 -38 -7 -88 -21 -112 -32 -33 -14 -47 -16 -57 -8 -20 16 -47 3 -40 -19
4 -13 -10 -35 -48 -74 -99 -102 -143 -221 -133 -362 6 -98 33 -173 88 -245
l41 -55 -11 -70 c-11 -64 -10 -72 6 -84 16 -12 22 -8 59 33 l40 45 40 -16
c137 -58 271 -58 409 0 l40 17 42 -45 c66 -71 88 -43 64 83 -8 41 -7 46 30 95
53 70 80 145 86 242 10 141 -34 260 -133 362 -38 39 -52 61 -48 74 7 22 -20
35 -40 19 -10 -8 -24 -6 -57 8 -24 11 -74 25 -111 32 -65 12 -68 14 -68 41 0
22 5 28 21 28 14 0 19 5 17 18 -2 12 -14 18 -43 20 -23 2 -44 0 -48 -4z m201
-219 c72 -32 150 -108 189 -185 25 -50 28 -65 28 -160 0 -96 -3 -110 -29 -165
-17 -33 -50 -80 -76 -105 -25 -26 -72 -59 -105 -76 -55 -26 -69 -29 -165 -29
-96 0 -110 3 -165 29 -33 17 -80 50 -105 76 -26 25 -59 72 -76 105 -26 55 -29
69 -29 165 0 95 3 110 28 160 52 101 152 184 254 210 67 17 184 5 251 -25z"/>
<path d="M1482 993 c2 -10 10 -18 18 -18 8 0 16 8 18 18 2 12 -3 17 -18 17
-15 0 -20 -5 -18 -17z"/>
<path d="M1650 955 c-7 -9 -10 -18 -7 -21 3 -3 10 4 17 15 13 25 8 27 -10 6z"/>
<path d="M1330 951 c0 -5 5 -13 10 -16 6 -3 10 -2 10 4 0 5 -4 13 -10 16 -5 3
-10 2 -10 -4z"/>
<path d="M1371 868 c7 -13 29 -48 50 -78 27 -42 36 -63 32 -83 -3 -15 0 -34 7
-42 16 -19 64 -19 80 0 9 11 32 15 81 15 55 0 69 3 69 15 0 12 -14 15 -69 15
-49 0 -72 4 -81 15 -7 8 -22 15 -34 15 -15 0 -34 21 -70 75 -27 41 -55 75 -63
75 -11 0 -11 -4 -2 -22z"/>
<path d="M1750 860 c-8 -5 -12 -12 -9 -15 4 -3 12 1 19 10 14 17 11 19 -10 5z"/>
<path d="M1230 850 c8 -5 20 -10 25 -10 6 0 3 5 -5 10 -8 5 -19 10 -25 10 -5
0 -3 -5 5 -10z"/>
<path d="M1183 704 c-8 -21 13 -42 28 -27 13 13 5 43 -11 43 -6 0 -13 -7 -17
-16z"/>
<path d="M1783 704 c-8 -21 13 -42 28 -27 13 13 5 43 -11 43 -6 0 -13 -7 -17
-16z"/>
<path d="M1240 535 c-11 -13 -10 -14 4 -9 9 3 16 10 16 15 0 13 -6 11 -20 -6z"/>
<path d="M1750 540 c8 -5 20 -10 25 -10 6 0 3 5 -5 10 -8 5 -19 10 -25 10 -5
0 -3 -5 5 -10z"/>
<path d="M1340 438 c-12 -22 -12 -22 6 -6 10 10 15 20 12 24 -4 3 -12 -5 -18
-18z"/>
<path d="M1650 451 c0 -5 5 -13 10 -16 6 -3 10 -2 10 4 0 5 -4 13 -10 16 -5 3
-10 2 -10 -4z"/>
<path d="M1487 414 c-14 -15 -6 -34 14 -34 14 0 19 5 17 17 -3 18 -20 27 -31
17z"/>
</g>
</svg>
